<svg xmlns="http://www.w3.org/2000/svg" id="Layer_1" viewBox="0 0 192 192"><defs><style>.cls-1{fill:none}.cls-2{fill:#e02a26}</style></defs><path d="M28.9 53.87h130.19v6.5H28.9zm0 18.34h130.19v6.5H28.9zm0 25.38l89 .15v-6.5l-89-.15v6.5zm0 12.92h78.98v6.5H28.9zm0 18.34h81.99v6.5H28.9z"/><path class="cls-1" d="M145.03 98.83c-10.01 0-18.16 8.15-18.16 18.16s8.15 18.16 18.16 18.16 18.16-8.15 18.16-18.16-8.15-18.16-18.16-18.16zm9.54 13.29l-10.73 12.34a.88.88 0 01-1.26.07l-7-6.36a.885.885 0 01-.06-1.25l1.5-1.65c.33-.36.89-.39 1.25-.06l3.98 3.61c.37.33.94.3 1.26-.07l8.05-9.26c.32-.37.88-.41 1.25-.09l1.68 1.46c.37.32.41.88.09 1.25z"/><path class="cls-1" d="M167.4 109.42l.42-3.55-3.09-1.8a3.578 3.578 0 01-1.66-2.2l-.89-3.47-3.53-.57c-.94-.15-1.79-.68-2.34-1.45l-2.08-2.91-3.5.75c-.93.2-1.92.01-2.71-.51l-2.99-1.96-2.99 1.96c-.79.52-1.78.71-2.71.51l-3.5-.75-2.08 2.91c-.55.77-1.4 1.3-2.34 1.45l-3.53.57-.89 3.47c-.24.92-.84 1.72-1.66 2.2l-3.09 1.8.42 3.55c.11.94-.16 1.91-.75 2.65l-2.23 2.8 1.68 3.16c.44.84.54 1.83.25 2.74l-1.07 3.42 2.71 2.34c.72.62 1.17 1.52 1.23 2.47l.24 3.57 3.37 1.2c.89.32 1.64 1 2.04 1.86l1.51 3.24 3.58-.09h.09c.92 0 1.82.36 2.48 1l2.58 2.48 3.3-1.38a3.57 3.57 0 012.76 0l3.3 1.38 2.58-2.48c.68-.66 1.61-1.04 2.57-1l3.58.09 1.51-3.24a3.62 3.62 0 012.04-1.86l3.37-1.2.24-3.57c.06-.95.51-1.85 1.23-2.47l2.7-2.34-1.07-3.41c-.29-.91-.19-1.91.26-2.75l1.67-3.16-2.23-2.8c-.59-.74-.87-1.71-.75-2.65zm-22.37 29.73c-12.22 0-22.17-9.94-22.17-22.17s9.94-22.17 22.17-22.17 22.17 9.94 22.17 22.17-9.94 22.17-22.17 22.17z"/><path class="cls-2" d="M152.79 109.4a.886.886 0 00-1.25.09l-8.05 9.26a.88.88 0 01-1.26.07l-3.98-3.61a.885.885 0 00-1.25.06l-1.5 1.65c-.33.36-.3.92.06 1.25l7 6.36c.37.33.94.3 1.26-.07l10.73-12.34c.32-.37.28-.93-.09-1.25l-1.68-1.46z"/><path class="cls-2" d="M145.03 94.82c-12.22 0-22.17 9.94-22.17 22.17s9.94 22.17 22.17 22.17 22.17-9.94 22.17-22.17-9.94-22.17-22.17-22.17zm18.16 22.16c0 10.01-8.15 18.16-18.16 18.16s-18.16-8.15-18.16-18.16 8.15-18.16 18.16-18.16 18.16 8.15 18.16 18.16z"/><path class="cls-2" d="M173.68 112.6l-2.29-2.88.44-3.65c.17-1.41-.52-2.79-1.75-3.51l-3.18-1.85-.91-3.56a3.557 3.557 0 00-2.9-2.64l-3.63-.58-2.14-2.99a3.59 3.59 0 00-3.66-1.42l-3.6.77-3.08-2.02a3.576 3.576 0 00-3.92 0l-3.08 2.02-3.59-.77c-1.4-.3-2.83.26-3.66 1.42l-2.14 2.99-3.63.58a3.57 3.57 0 00-2.9 2.64l-.91 3.56-3.18 1.85c-1.23.72-1.92 2.1-1.75 3.51l.44 3.65-2.29 2.88a3.56 3.56 0 00-.36 3.9l1.73 3.25-1.1 3.51c-.42 1.36 0 2.84 1.07 3.77l2.78 2.41.24 3.67a3.568 3.568 0 002.36 3.13l3.46 1.24 1.55 3.34a3.59 3.59 0 003.33 2.06l3.68-.1 2.65 2.55c.68.65 1.57 1 2.48 1 .46 0 .93-.09 1.38-.28l3.39-1.42 3.39 1.42c1.31.55 2.83.27 3.86-.72l2.65-2.55 3.68.1c1.39.03 2.73-.77 3.34-2.06l1.55-3.33 3.46-1.24a3.568 3.568 0 002.36-3.13l.24-3.67 2.78-2.41c1.08-.93 1.5-2.41 1.07-3.77l-1.1-3.51 1.73-3.25c.67-1.26.53-2.79-.36-3.91zm-4.98 5.43c-.45.84-.54 1.84-.26 2.75l1.07 3.41-2.7 2.34c-.72.62-1.17 1.52-1.23 2.47l-.24 3.57-3.37 1.2c-.9.32-1.64 1-2.04 1.86l-1.51 3.24-3.58-.09c-.96-.05-1.89.34-2.57 1l-2.58 2.48-3.3-1.38a3.57 3.57 0 00-2.76 0l-3.3 1.38-2.58-2.48c-.66-.64-1.56-1-2.48-1h-.09l-3.58.09-1.51-3.24a3.59 3.59 0 00-2.04-1.86l-3.37-1.2-.24-3.57c-.06-.95-.51-1.85-1.23-2.47l-2.71-2.34 1.07-3.42c.28-.91.19-1.91-.25-2.74l-1.68-3.16 2.23-2.8c.59-.74.87-1.71.75-2.65l-.42-3.55 3.09-1.8c.82-.48 1.42-1.28 1.66-2.2l.89-3.47 3.53-.57c.94-.15 1.79-.68 2.34-1.45l2.08-2.91 3.5.75c.93.2 1.92.01 2.71-.51l2.99-1.96 2.99 1.96c.79.52 1.78.71 2.71.51l3.5-.75 2.08 2.91c.55.77 1.41 1.3 2.34 1.45l3.53.57.89 3.47c.24.92.84 1.72 1.66 2.2l3.09 1.8-.42 3.55c-.11.94.16 1.91.75 2.65l2.23 2.8-1.67 3.16z"/><path d="M180.37 155.85H13.46c-2.21 0-4-1.79-4-4V39.45c0-2.21 1.79-4 4-4h166.91c2.21 0 4 1.79 4 4v112.4c0 2.21-1.79 4-4 4zm-162.91-8h158.91V43.45H17.46v104.4z"/></svg>