<svg xmlns="http://www.w3.org/2000/svg" id="Security_Networking" data-name="Security Networking" viewBox="0 0 192 192"><defs><style>.cls-2{fill:none;stroke-linejoin:round;stroke-width:6px;stroke:#000}</style></defs><g id="FortiVoice"><g id="Stroke"><path class="cls-2" d="M69.53 59.9c-1.33 2.34-2.64 4.78-3.51 6.42-.49.94-.97 1.82-1.41 2.65L43.75 32.01c1.87-1.26 3.82-2.4 5.81-3.42 1.42-.73 3.14-.22 3.95 1.14 2.29 3.87 4.56 7.74 6.83 11.6 3.02 5.18 6.1 10.41 9.16 15.56.56.93.57 2.08.03 3.02zm92.58 85.39a62.094 62.094 0 01-4.01 6.17l-37.27-21.86c1.82-.93 3.63-1.83 5.4-2.7l.65-.31c.91-.49 1.9-.96 2.88-1.44.61-.31 1.24-.62 1.87-.93.94-.47 2.07-.42 2.96.16 5.1 3.26 10.22 6.51 15.33 9.79 3.74 2.36 7.46 4.73 11.2 7.11 1.34.86 1.77 2.62.99 4.01z"/><path class="cls-2" d="M158.1 151.46a61.761 61.761 0 01-10.75 11.29c-.4.32-.88.54-1.37.63-.42.07-.86.06-1.29-.05-.13-.04-.29-.09-.5-.15-55.26-17.67-97.63-61.58-113.3-117.46-.27-.96-.05-1.98.59-2.74 3.52-4.18 7.68-7.91 12.26-10.97L64.6 68.97c-.7 1.28-1.34 2.46-2 3.63-.03.02-.04.06-.05.09a9.395 9.395 0 00.26 10.23c.01.03.04.06.06.09 11.8 18.7 27 34.52 45.23 47.01.04.02.08.06.12.08a9.416 9.416 0 0010.45.64c.73-.38 1.44-.76 2.17-1.13l37.27 21.86z"/></g><path d="M95.91 35.21c33.55 0 60.85 27.3 60.85 60.85M95.91 56.2c21.98 0 39.86 17.88 39.86 39.86M95.91 77.19c10.42 0 18.86 8.45 18.86 18.86" stroke="#da291c" stroke-linecap="round" fill="none" stroke-linejoin="round" stroke-width="6"/></g></svg>