<svg xmlns="http://www.w3.org/2000/svg" viewBox="0 0 192 192"><path d="M95.3 173.1H25c-2.2 0-4-1.8-4-4l-.3-121.9c0-2.2 1.8-4 4-4h23.8V22.9c0-2.2 1.8-4 4-4h42.8c2.2 0 4 1.8 4 4v146.2c0 2.2-1.8 4-4 4zm-66.3-8h62.3V26.9H56.5v20.3c0 2.2-1.8 4-4 4H28.7l.3 113.9z"/><path d="M159.9 173.1H95.5c-2.2 0-4-1.8-4-4l-.4-121.9c0-2.2 1.8-4 4-4h18V22.9c0-2.2 1.8-4 4-4h42.8c2.2 0 4 1.8 4 4v146.2c0 2.2-1.8 4-4 4zm-60.4-8h56.4V26.9h-34.8v20.3c0 2.2-1.8 4-4 4h-18l.4 113.9z"/><path d="M66.4 84.6h17.2v15.1H66.4zm-.2-24.2h17.6v15.4H66.2zm0-24.1h17.6v15.4H66.2zm0 72.1h17.6v15.4H66.2zm64.2-23.8h17.2v15.1h-17.2zm-.2-24.2h17.6v15.4h-17.6zm0-24.1h17.6v15.4h-17.6zm0 72.1h17.6v15.4h-17.6z" fill="#da291c"/></svg>