<svg xmlns="http://www.w3.org/2000/svg" id="_2_color_stroke_original_copy" data-name="2 color stroke original copy" viewBox="0 0 192 192"><defs><style>.cls-1{fill:#231f20}</style></defs><path class="cls-1" d="M116 163.76a68.84 68.84 0 01-12.75-1.2l1.49-7.86A60 60 0 10116 35.76 61.23 61.23 0 00103.9 37l-1.6-7.83A68 68 0 11116 163.76z"/><path d="M92 100H12a4 4 0 010-8h80a4 4 0 010 8zm0-28H36a4 4 0 010-8h56a4 4 0 010 8zm0-28H64a4 4 0 010-8h28a4 4 0 010 8zm0 84H36a4 4 0 010-8h56a4 4 0 010 8zm0 28H64a4 4 0 010-8h28a4 4 0 010 8z" fill="#da291c"/><circle class="cls-1" cx="116" cy="95.75" r="6"/><path class="cls-1" d="M116 86a2 2 0 01-2-2V48a2 2 0 014 0v36a2 2 0 01-2 2zm30 12h-17a2 2 0 110-4h17a2 2 0 010 4zm-34-78h8v11.75h-8z"/><path class="cls-1" d="M132 24h-32a4 4 0 010-8h32a4 4 0 010 8z"/></svg>