<svg xmlns="http://www.w3.org/2000/svg" id="_2_color_stroke" data-name="2 color stroke" viewBox="0 0 192 192"><defs><style>.cls-1{fill:#da291c}</style></defs><g id="generic"><path transform="rotate(-43.3 70.222 118.102)" d="M45.5 114.1h49.46v8H45.5z"/><path d="M126.23 117.08h8v29.06h-8zm-74-53.93h29.48v8H52.23z"/><path class="cls-1" d="M48.23 57.15v20h-20v-20h20m8-8h-36v36h36zm84 100v20h-20v-20h20m8-8h-36v36h36zm-100-4v32h-32v-32h32m8-8h-48v48h48z"/></g><path d="M145.8 55a15.55 15.55 0 11-15.57-15.54A15.53 15.53 0 01145.8 55zm2.6 22a10.32 10.32 0 00-3.52-.62h-29.24a9.93 9.93 0 00-3.5.62 10.35 10.35 0 00-6.87 9.76v8.11h49.92v-8.15A10.36 10.36 0 00148.4 77z"/><path class="cls-1" d="M77.22 68.13a53.28 53.28 0 1153.28 53.27 53.34 53.34 0 01-53.28-53.27zm8 0a45.28 45.28 0 1045.28-45.28 45.33 45.33 0 00-45.28 45.28z"/></svg>