<svg xmlns="http://www.w3.org/2000/svg" id="_2_color_stroke_original_copy" data-name="2 color stroke original copy" viewBox="0 0 192 192"><defs><style>.cls-1{fill:#da291c}</style></defs><path d="M96.36 176.77a80.25 80.25 0 01-12.8-1l1.27-7.89a72.2 72.2 0 0030.63-1.66l2.11 7.72a80.21 80.21 0 01-21.21 2.83zm51.55-130.24a72 72 0 00-91.33-9.77l-4.43-6.67a80 80 0 01101.49 10.85z"/><path d="M16.43 99.89c0-1-.07-2.08-.07-3.12a79.9 79.9 0 0135.79-66.68l4.43 6.67a71.88 71.88 0 00-32.22 60c0 .94 0 1.87.07 2.81z"/><path d="M83.56 175.73a80.13 80.13 0 01-67.13-75.84l8-.31a72.11 72.11 0 0060.4 68.26zm34.01-1.83l-2.11-7.72a72 72 0 0049.77-90.45l7.65-2.33a80 80 0 01-55.31 100.5z"/><path d="M165.23 75.73a72.15 72.15 0 00-17.32-29.2l5.73-5.59a80.32 80.32 0 0119.24 32.46z"/><path d="M166.94 78a109.32 109.32 0 00-28.05-12.38l2.17-7.7a117.46 117.46 0 0130.1 13.28zm-143.4 24.25l-6.21-5a118.63 118.63 0 0126.05-23.86L47.84 80a110.81 110.81 0 00-24.3 22.25zM72.15 67.8l-2.68-7.54A117.46 117.46 0 01113 53.54l-.27 8q-1.86-.06-3.75-.06a109.7 109.7 0 00-36.83 6.32zM62 55.32l-8-.59a141 141 0 015.06-27.37l7.66 2.3A131.94 131.94 0 0062 55.32zM71.64 126a116.84 116.84 0 01-16.17-42.21l7.88-1.37a108.87 108.87 0 0015.07 39.35zM123 171a117.8 117.8 0 01-35.85-25.2l5.73-5.58a109.69 109.69 0 0033.43 23.49zm-34.59-46.25L80.59 123a117.55 117.55 0 0133.13-59.28l5.57 5.75a109.46 109.46 0 00-30.88 55.28zm51.81-71.19l-4.05-6.89a117.86 117.86 0 0113-6.61l3.17 7.35a108 108 0 00-12.12 6.15zM80.28 172.6a119.3 119.3 0 01-2.45-21.48l8-.18a111.34 111.34 0 002.28 20z"/><circle class="cls-1" cx="57.24" cy="68.15" r="16.58"/><circle class="cls-1" cx="124.66" cy="58" r="16.58"/><circle class="cls-1" cx="80" cy="138" r="16.58"/></svg>